<mxfile host="app.diagrams.net" agent="Mozilla/5.0 (Windows NT 10.0; Win64; x64) AppleWebKit/537.36 (KHTML, like Gecko) Chrome/137.0.0.0 Safari/537.36" version="27.1.0" pages="2">
  <diagram name="Task 1" id="spqXfYToDoBEzWdna3X4">
    <mxGraphModel dx="786" dy="1119" grid="1" gridSize="10" guides="1" tooltips="1" connect="1" arrows="1" fold="1" page="1" pageScale="1" pageWidth="827" pageHeight="1169" math="0" shadow="0">
      <root>
        <mxCell id="0" />
        <mxCell id="1" parent="0" />
        <mxCell id="kwnlvVWQhzUXJskIBQ-U-1" value="R1" style="rounded=0;whiteSpace=wrap;html=1;" vertex="1" parent="1">
          <mxGeometry x="260" y="280" width="120" height="30" as="geometry" />
        </mxCell>
        <mxCell id="kwnlvVWQhzUXJskIBQ-U-2" value="R2" style="rounded=0;whiteSpace=wrap;html=1;" vertex="1" parent="1">
          <mxGeometry x="260" y="420" width="120" height="30" as="geometry" />
        </mxCell>
        <mxCell id="kwnlvVWQhzUXJskIBQ-U-3" value="R3" style="rounded=0;whiteSpace=wrap;html=1;" vertex="1" parent="1">
          <mxGeometry x="540" y="350" width="120" height="30" as="geometry" />
        </mxCell>
        <mxCell id="kwnlvVWQhzUXJskIBQ-U-4" value="" style="endArrow=none;html=1;rounded=0;entryX=0;entryY=0.5;entryDx=0;entryDy=0;" edge="1" parent="1" target="kwnlvVWQhzUXJskIBQ-U-1">
          <mxGeometry width="50" height="50" relative="1" as="geometry">
            <mxPoint x="170" y="380" as="sourcePoint" />
            <mxPoint x="500" y="540" as="targetPoint" />
            <Array as="points">
              <mxPoint x="170" y="295" />
            </Array>
          </mxGeometry>
        </mxCell>
        <mxCell id="kwnlvVWQhzUXJskIBQ-U-5" value="" style="endArrow=none;html=1;rounded=0;exitX=0;exitY=0.5;exitDx=0;exitDy=0;" edge="1" parent="1" source="kwnlvVWQhzUXJskIBQ-U-2">
          <mxGeometry width="50" height="50" relative="1" as="geometry">
            <mxPoint x="510" y="610" as="sourcePoint" />
            <mxPoint x="170" y="380" as="targetPoint" />
            <Array as="points">
              <mxPoint x="170" y="435" />
            </Array>
          </mxGeometry>
        </mxCell>
        <mxCell id="kwnlvVWQhzUXJskIBQ-U-6" value="" style="endArrow=none;html=1;rounded=0;exitX=1;exitY=0.5;exitDx=0;exitDy=0;entryX=0;entryY=0.5;entryDx=0;entryDy=0;" edge="1" parent="1" source="kwnlvVWQhzUXJskIBQ-U-1" target="kwnlvVWQhzUXJskIBQ-U-3">
          <mxGeometry width="50" height="50" relative="1" as="geometry">
            <mxPoint x="530" y="240" as="sourcePoint" />
            <mxPoint x="520" y="295" as="targetPoint" />
            <Array as="points">
              <mxPoint x="470" y="295" />
              <mxPoint x="470" y="365" />
            </Array>
          </mxGeometry>
        </mxCell>
        <mxCell id="kwnlvVWQhzUXJskIBQ-U-7" value="" style="endArrow=none;html=1;rounded=0;exitX=1;exitY=0.5;exitDx=0;exitDy=0;entryX=0;entryY=0.5;entryDx=0;entryDy=0;" edge="1" parent="1" source="kwnlvVWQhzUXJskIBQ-U-2" target="kwnlvVWQhzUXJskIBQ-U-3">
          <mxGeometry width="50" height="50" relative="1" as="geometry">
            <mxPoint x="400" y="434.76" as="sourcePoint" />
            <mxPoint x="520" y="390" as="targetPoint" />
            <Array as="points">
              <mxPoint x="470" y="435" />
              <mxPoint x="470" y="365" />
            </Array>
          </mxGeometry>
        </mxCell>
        <mxCell id="kwnlvVWQhzUXJskIBQ-U-8" value="+" style="ellipse;whiteSpace=wrap;html=1;aspect=fixed;" vertex="1" parent="1">
          <mxGeometry x="350" y="585" width="50" height="50" as="geometry" />
        </mxCell>
        <mxCell id="kwnlvVWQhzUXJskIBQ-U-9" value="-" style="ellipse;whiteSpace=wrap;html=1;aspect=fixed;" vertex="1" parent="1">
          <mxGeometry x="440" y="585" width="50" height="50" as="geometry" />
        </mxCell>
        <mxCell id="kwnlvVWQhzUXJskIBQ-U-10" value="" style="endArrow=none;html=1;rounded=0;entryX=0;entryY=0.5;entryDx=0;entryDy=0;" edge="1" parent="1" target="kwnlvVWQhzUXJskIBQ-U-8">
          <mxGeometry width="50" height="50" relative="1" as="geometry">
            <mxPoint x="170" y="360" as="sourcePoint" />
            <mxPoint x="400" y="180" as="targetPoint" />
            <Array as="points">
              <mxPoint x="90" y="360" />
              <mxPoint x="90" y="610" />
            </Array>
          </mxGeometry>
        </mxCell>
        <mxCell id="kwnlvVWQhzUXJskIBQ-U-11" value="" style="endArrow=none;html=1;rounded=0;entryX=1;entryY=0.5;entryDx=0;entryDy=0;exitX=1;exitY=0.5;exitDx=0;exitDy=0;" edge="1" parent="1" source="kwnlvVWQhzUXJskIBQ-U-9" target="kwnlvVWQhzUXJskIBQ-U-3">
          <mxGeometry width="50" height="50" relative="1" as="geometry">
            <mxPoint x="350" y="230" as="sourcePoint" />
            <mxPoint x="400" y="180" as="targetPoint" />
            <Array as="points">
              <mxPoint x="710" y="610" />
              <mxPoint x="710" y="365" />
            </Array>
          </mxGeometry>
        </mxCell>
        <mxCell id="kwnlvVWQhzUXJskIBQ-U-13" value="V" style="rounded=0;whiteSpace=wrap;html=1;" vertex="1" parent="1">
          <mxGeometry x="260" y="480" width="120" height="60" as="geometry" />
        </mxCell>
        <mxCell id="kwnlvVWQhzUXJskIBQ-U-14" value="" style="endArrow=none;html=1;rounded=0;entryX=0;entryY=0.5;entryDx=0;entryDy=0;" edge="1" parent="1" target="kwnlvVWQhzUXJskIBQ-U-13">
          <mxGeometry width="50" height="50" relative="1" as="geometry">
            <mxPoint x="210" y="435" as="sourcePoint" />
            <mxPoint x="420" y="480" as="targetPoint" />
            <Array as="points">
              <mxPoint x="210" y="510" />
            </Array>
          </mxGeometry>
        </mxCell>
        <mxCell id="kwnlvVWQhzUXJskIBQ-U-15" value="" style="endArrow=none;html=1;rounded=0;entryX=0;entryY=0.5;entryDx=0;entryDy=0;" edge="1" parent="1">
          <mxGeometry width="50" height="50" relative="1" as="geometry">
            <mxPoint x="430" y="435" as="sourcePoint" />
            <mxPoint x="380" y="508" as="targetPoint" />
            <Array as="points">
              <mxPoint x="430" y="508" />
            </Array>
          </mxGeometry>
        </mxCell>
        <mxCell id="kwnlvVWQhzUXJskIBQ-U-16" value="I" style="rounded=0;whiteSpace=wrap;html=1;" vertex="1" parent="1">
          <mxGeometry x="650" y="420" width="120" height="60" as="geometry" />
        </mxCell>
      </root>
    </mxGraphModel>
  </diagram>
  <diagram id="J0mmC4Zjqs6XiegJNTSI" name="Task2b">
    <mxGraphModel dx="786" dy="1119" grid="1" gridSize="10" guides="1" tooltips="1" connect="1" arrows="1" fold="1" page="1" pageScale="1" pageWidth="827" pageHeight="1169" math="0" shadow="0">
      <root>
        <mxCell id="0" />
        <mxCell id="1" parent="0" />
        <mxCell id="xx7Br2pv-WhxYyywYhiZ-1" value="R1" style="rounded=0;whiteSpace=wrap;html=1;" vertex="1" parent="1">
          <mxGeometry x="310" y="525" width="120" height="60" as="geometry" />
        </mxCell>
        <mxCell id="xx7Br2pv-WhxYyywYhiZ-2" value="&lt;span style=&quot;color: rgb(31, 31, 31); font-family: &amp;quot;Google Sans&amp;quot;, Arial, sans-serif; font-size: 32px; text-align: start; background-color: rgb(255, 255, 255);&quot;&gt;Î©&lt;/span&gt;" style="rounded=0;whiteSpace=wrap;html=1;" vertex="1" parent="1">
          <mxGeometry x="310" y="330" width="120" height="60" as="geometry" />
        </mxCell>
        <mxCell id="xx7Br2pv-WhxYyywYhiZ-3" value="" style="endArrow=none;html=1;rounded=0;entryX=0;entryY=0.5;entryDx=0;entryDy=0;exitX=0;exitY=0.5;exitDx=0;exitDy=0;" edge="1" parent="1" source="xx7Br2pv-WhxYyywYhiZ-1" target="xx7Br2pv-WhxYyywYhiZ-2">
          <mxGeometry width="50" height="50" relative="1" as="geometry">
            <mxPoint x="380" y="600" as="sourcePoint" />
            <mxPoint x="430" y="550" as="targetPoint" />
            <Array as="points">
              <mxPoint x="230" y="555" />
              <mxPoint x="230" y="360" />
            </Array>
          </mxGeometry>
        </mxCell>
        <mxCell id="xx7Br2pv-WhxYyywYhiZ-4" value="" style="endArrow=none;html=1;rounded=0;entryX=1;entryY=0.5;entryDx=0;entryDy=0;exitX=1;exitY=0.5;exitDx=0;exitDy=0;" edge="1" parent="1" source="xx7Br2pv-WhxYyywYhiZ-1" target="xx7Br2pv-WhxYyywYhiZ-2">
          <mxGeometry width="50" height="50" relative="1" as="geometry">
            <mxPoint x="380" y="600" as="sourcePoint" />
            <mxPoint x="430" y="550" as="targetPoint" />
            <Array as="points">
              <mxPoint x="510" y="555" />
              <mxPoint x="510" y="460" />
              <mxPoint x="510" y="360" />
            </Array>
          </mxGeometry>
        </mxCell>
      </root>
    </mxGraphModel>
  </diagram>
</mxfile>
